<svg width="38" height="38" viewBox="0 0 38 38" fill="none" xmlns="http://www.w3.org/2000/svg">
<path d="M20.5228 1.99335C22.3414 2.33445 23.6259 3.96999 23.5262 5.81755L23.3847 8.4418C26.5657 9.76284 28.9972 12.4716 29.9685 15.7762L32.5928 15.9177C34.4403 16.0173 35.9283 17.4703 36.0718 19.3149C36.1033 19.7187 36.0814 20.1248 36.0067 20.5228C35.6656 22.3413 34.0301 23.6258 32.1825 23.5262L29.5582 23.3847C28.2372 26.5657 25.5285 28.9972 22.2239 29.9685L22.0824 32.5927C21.9827 34.4403 20.5298 35.9282 18.6851 36.0718C18.2814 36.1032 17.8753 36.0813 17.4773 36.0067C15.6587 35.6656 14.3742 34.03 14.4739 32.1824L14.6154 29.5582C11.4344 28.2372 9.00285 25.5284 8.03155 22.2238L5.4073 22.0823C3.55973 21.9827 2.07182 20.5298 1.92825 18.6851C1.89683 18.2814 1.91873 17.8752 1.99339 17.4772C2.3345 15.6587 3.97004 14.3742 5.81762 14.4738L8.44185 14.6153C9.76288 11.4343 12.4716 9.0028 15.7762 8.03151L15.9177 5.40729C16.0174 3.55971 17.4703 2.07178 19.315 1.92821C19.7187 1.89679 20.1248 1.91869 20.5228 1.99335Z" stroke="#FC4B37" stroke-width="3" stroke-linecap="round" stroke-linejoin="round"/>
<path d="M14.2566 18.7461C14.3979 16.126 16.6365 14.1165 19.2566 14.2578C21.8767 14.3991 23.8862 16.6377 23.745 19.2578C23.6037 21.8779 21.3651 23.8874 18.745 23.7461C16.1248 23.6048 14.1153 21.3663 14.2566 18.7461Z" stroke="#FC4B37" stroke-width="3"/>
</svg>
