<svg width="16" height="16" viewBox="0 0 16 16" fill="none" xmlns="http://www.w3.org/2000/svg">
<path fill-rule="evenodd" clip-rule="evenodd" d="M8.72335 0.98499C8.22747 0.749795 7.65219 0.749795 7.15631 0.984989C6.81302 1.14781 6.56951 1.45601 6.35373 1.80434C6.13679 2.15457 5.89877 2.63062 5.60237 3.22344L5.60236 3.22346L5.59076 3.24668L5.35186 3.72447C5.14861 4.13097 5.08951 4.2375 5.0153 4.31517C4.93876 4.39528 4.84699 4.45928 4.74536 4.50341C4.64682 4.54618 4.52643 4.56482 4.07473 4.61501L3.85787 4.63911L3.83184 4.642H3.83184C3.11977 4.72111 2.55094 4.78431 2.12029 4.87191C1.69557 4.9583 1.29974 5.08618 1.02267 5.36888C0.626232 5.77335 0.439599 6.3387 0.517312 6.8997C0.571627 7.29178 0.813515 7.63022 1.10333 7.95251C1.39719 8.27924 1.81659 8.66875 2.34161 9.15626L2.36079 9.17408L2.58975 9.38665C2.98744 9.75594 3.08941 9.8604 3.14654 9.97164C3.20552 10.0865 3.23694 10.2135 3.2383 10.3427C3.23961 10.4675 3.19726 10.61 3.01513 11.1291L3.00652 11.1537L3.00651 11.1537C2.73773 11.9197 2.52488 12.5264 2.40403 12.9983C2.28663 13.4568 2.22085 13.907 2.3739 14.2968C2.58927 14.8454 3.05587 15.2566 3.62721 15.4012C4.03207 15.5037 4.46656 15.3843 4.90268 15.2123C5.35039 15.0357 5.91731 14.7522 6.63211 14.3948L6.65551 14.3831L7.2113 14.1052C7.58604 13.9178 7.68837 13.8717 7.78657 13.8533C7.88784 13.8343 7.99183 13.8343 8.09309 13.8533C8.19129 13.8717 8.29362 13.9178 8.66836 14.1052L9.22415 14.3831L9.24762 14.3948C9.96239 14.7522 10.5293 15.0357 10.977 15.2123C11.4131 15.3843 11.8476 15.5037 12.2524 15.4012C12.8238 15.2566 13.2904 14.8454 13.5058 14.2968C13.6588 13.907 13.593 13.4568 13.4756 12.9983C13.3548 12.5264 13.1419 11.9197 12.8731 11.1537V11.1536L12.8645 11.1291C12.6824 10.61 12.6401 10.4675 12.6413 10.3427C12.6427 10.2135 12.6741 10.0865 12.7332 9.97164C12.7903 9.8604 12.8922 9.75594 13.2899 9.38665L13.5189 9.17408L13.5381 9.15619V9.15619C14.0631 8.66868 14.4825 8.27924 14.7763 7.95251C15.0662 7.63022 15.308 7.29178 15.3624 6.8997C15.4401 6.3387 15.2535 5.77335 14.857 5.36888C14.5799 5.08618 14.1841 4.9583 13.7594 4.87191C13.3287 4.78431 12.7599 4.72111 12.0478 4.642L12.0218 4.63911L11.805 4.61501C11.3532 4.56482 11.2328 4.54618 11.1343 4.50341C11.0327 4.45928 10.9409 4.39528 10.8644 4.31517C10.7902 4.2375 10.7311 4.13097 10.5278 3.72446L10.2889 3.24668L10.2773 3.22345C9.98087 2.63062 9.7429 2.15457 9.52595 1.80434C9.31019 1.45601 9.0667 1.14781 8.72335 0.98499Z" fill="#FFC250"/>
</svg>
