<svg width="36" height="36" viewBox="0 0 36 36" fill="none" xmlns="http://www.w3.org/2000/svg">
<path fill-rule="evenodd" clip-rule="evenodd" d="M11.481 8.95947C11.481 8.37155 11.9575 7.89502 12.5454 7.89501L26.5963 7.89494C26.8786 7.89484 27.1494 8.00705 27.349 8.20667C27.5486 8.40629 27.6608 8.67708 27.6608 8.9595V23.0104C27.6608 23.5984 27.1843 24.0749 26.5964 24.0749C26.0085 24.0749 25.5318 23.5983 25.5318 23.0103L25.5317 11.5294L9.28354 27.7776C8.86782 28.1933 8.19379 28.1933 7.77809 27.7776C7.36238 27.3619 7.36237 26.6879 7.77809 26.2721L24.0263 10.024L12.5455 10.024C11.9576 10.024 11.481 9.5474 11.481 8.95947Z" fill="black"/>
</svg>
