<svg width="20" height="19" viewBox="0 0 20 19" fill="none" xmlns="http://www.w3.org/2000/svg">
<path d="M2.28065 10.5832L2.76743 10.469L2.28065 10.5832ZM2.28065 5.73244L2.76743 5.84663L2.28065 5.73244ZM16.035 5.73245L16.5217 5.61826L16.5217 5.61826L16.035 5.73245ZM16.035 10.5832L16.5217 10.6973L16.035 10.5832ZM11.5832 15.035L11.469 14.5482L11.5832 15.035ZM6.73245 15.035L6.61826 15.5217L6.73245 15.035ZM6.73245 1.28065L6.61826 0.79386L6.73245 1.28065ZM11.5832 1.28065L11.6973 0.793859L11.5832 1.28065ZM17.6464 17.3536C17.8417 17.5488 18.1583 17.5488 18.3536 17.3536C18.5488 17.1583 18.5488 16.8417 18.3536 16.6464L17.6464 17.3536ZM2.76743 10.469C2.41086 8.94882 2.41086 7.36678 2.76743 5.84663L1.79386 5.61826C1.40205 7.28862 1.40205 9.02699 1.79386 10.6973L2.76743 10.469ZM15.5482 5.84663C15.9047 7.36678 15.9047 8.94882 15.5482 10.469L16.5217 10.6973C16.9136 9.02698 16.9136 7.28862 16.5217 5.61826L15.5482 5.84663ZM11.469 14.5482C9.94882 14.9047 8.36678 14.9047 6.84663 14.5482L6.61826 15.5217C8.28862 15.9136 10.027 15.9136 11.6973 15.5217L11.469 14.5482ZM6.84663 1.76743C8.36678 1.41086 9.94882 1.41086 11.469 1.76743L11.6973 0.793859C10.027 0.402047 8.28862 0.402047 6.61826 0.79386L6.84663 1.76743ZM6.84663 14.5482C4.8226 14.0734 3.24221 12.493 2.76743 10.469L1.79386 10.6973C2.35537 13.0911 4.22447 14.9602 6.61826 15.5217L6.84663 14.5482ZM11.6973 15.5217C14.0911 14.9602 15.9602 13.0911 16.5217 10.6973L15.5482 10.469C15.0734 12.493 13.493 14.0734 11.469 14.5482L11.6973 15.5217ZM11.469 1.76743C13.493 2.24221 15.0734 3.82259 15.5482 5.84663L16.5217 5.61826C15.9602 3.22447 14.0911 1.35537 11.6973 0.793859L11.469 1.76743ZM6.61826 0.79386C4.22447 1.35537 2.35537 3.22446 1.79386 5.61826L2.76743 5.84663C3.24221 3.82259 4.82259 2.24221 6.84663 1.76743L6.61826 0.79386ZM14.3888 14.0959L17.6464 17.3536L18.3536 16.6464L15.0959 13.3888L14.3888 14.0959Z" fill="#707070"/>
</svg>
