<svg width="153" height="44" viewBox="0 0 153 44" fill="none" xmlns="http://www.w3.org/2000/svg">
<path d="M152.724 39.5874C152.724 41.9851 150.787 43.9286 148.397 43.9286H114.135C111.745 43.9286 109.809 41.9851 109.809 39.5874V4.84518C109.809 2.44763 111.745 0.503906 114.135 0.503906H148.397C150.787 0.503906 152.724 2.44763 152.724 4.84518V39.5874Z" fill="#F5F5F5"/>
<path d="M0 9.25977H5.7738V30.0009H15.954V34.863H0V9.25977Z" fill="#F5F5F5"/>
<path d="M23.9672 11.1214C23.9672 12.7164 22.7898 14.0081 20.8526 14.0081C19.0292 14.0081 17.8516 12.7164 17.8516 11.1214C17.8516 9.48793 19.0674 8.23438 20.9287 8.23438C22.7898 8.23438 23.9295 9.48793 23.9672 11.1214ZM18.0036 34.8627V16.2873H23.7777V34.8627H18.0036Z" fill="#F5F5F5"/>
<path d="M27.2321 22.2133C27.2321 19.8964 27.1562 17.9593 27.0801 16.2874H32.0941L32.3605 18.8707H32.4746C33.2341 17.6549 35.0953 15.8696 38.2099 15.8696C42.0089 15.8696 44.8581 18.415 44.8581 23.8848V34.863H39.0838V24.5685C39.0838 22.1755 38.2484 20.5423 36.1592 20.5423C34.5634 20.5423 33.614 21.6439 33.1959 22.7072C33.0441 23.0871 33.0065 23.6188 33.0065 24.151V34.863H27.2321V22.2133Z" fill="#F5F5F5"/>
<path d="M54.0888 24.1128H54.1647C54.5828 23.3149 55.0386 22.5554 55.4943 21.8717L59.2546 16.2874H66.2061L59.5586 23.8087L67.1556 34.863H60.0526L55.5317 27.2273L54.0888 29.0508V34.863H48.3145V7.89258H54.0888V24.1128Z" fill="#F5F5F5"/>
<path d="M71.6371 27.4176C71.7891 29.8106 74.1819 30.9504 76.8791 30.9504C78.8545 30.9504 80.4497 30.6843 82.0078 30.1526L82.767 34.0652C80.8675 34.863 78.5507 35.2429 76.0436 35.2429C69.7376 35.2429 66.1289 31.5963 66.1289 25.7841C66.1289 21.074 69.0543 15.8696 75.5112 15.8696C81.5134 15.8696 83.7926 20.5423 83.7926 25.1384C83.7926 26.1259 83.6783 26.9995 83.6025 27.4176H71.6371ZM78.4364 23.4668C78.4364 22.0615 77.8288 19.7061 75.1698 19.7061C72.7386 19.7061 71.7508 21.948 71.5989 23.4668H78.4364Z" fill="#F5F5F5"/>
<path d="M104.075 7.89258V29.3171C104.075 31.4061 104.151 33.6096 104.227 34.863H99.0986L98.8709 32.1659H98.7575C97.6178 34.217 95.3383 35.2813 92.9454 35.2813C88.5392 35.2813 85.0061 31.5204 85.0061 25.7462C84.9685 19.4782 88.8813 15.8319 93.325 15.8319C95.6422 15.8319 97.3897 16.6674 98.2251 17.9209H98.3011V7.89258H104.075ZM98.3011 24.1509C98.3011 23.8466 98.3011 23.429 98.2251 23.087C97.8836 21.568 96.6303 20.2762 94.8449 20.2762C92.1853 20.2762 90.8558 22.6313 90.8558 25.5564C90.8558 28.7088 92.4138 30.6842 94.8068 30.6842C96.4781 30.6842 97.8454 29.545 98.1874 27.9118C98.2636 27.4937 98.3011 27.0382 98.3011 26.582V24.1509Z" fill="#F5F5F5"/>
<path d="M123.768 11.1214C123.768 12.7164 122.59 14.0081 120.653 14.0081C118.83 14.0081 117.652 12.7164 117.652 11.1214C117.652 9.48793 118.868 8.23438 120.729 8.23438C122.59 8.23438 123.73 9.48793 123.768 11.1214ZM117.805 34.8627V16.2873H123.578V34.8627H117.805Z" fill="#1668E8"/>
<path d="M127.034 22.2133C127.034 19.8964 126.959 17.9593 126.883 16.2874H131.897L132.163 18.8707H132.277C133.036 17.6549 134.898 15.8696 138.013 15.8696C141.811 15.8696 144.66 18.415 144.66 23.8848V34.863H138.886V24.5685C138.886 22.1755 138.05 20.5423 135.961 20.5423C134.366 20.5423 133.417 21.6439 132.999 22.7072C132.846 23.0871 132.808 23.6188 132.808 24.151V34.863H127.034V22.2133Z" fill="#1668E8"/>
</svg>
