<svg width="164" height="25" viewBox="0 0 164 25" fill="none" xmlns="http://www.w3.org/2000/svg">
<path fill-rule="evenodd" clip-rule="evenodd" d="M89.7748 11.3612C89.7748 11.3612 88.1832 10.3763 87.1971 9.99519C87.1971 9.99519 84.1485 8.58217 83.5435 7.9099C83.5435 7.9099 82.3563 6.78996 83.0509 5.4904C83.0509 5.4904 83.3423 4.63933 84.598 4.63933C84.598 4.63933 86.2327 4.7292 86.2327 6.07274V7.96809H92.0911L92.08 5.1768C92.08 5.1768 92.5304 0.604538 85.1794 0.404281C85.1794 0.404281 79.3986 0.0241849 77.7404 3.13838C77.7404 3.13838 77.0895 3.83217 77.0895 6.25151V7.99974C77.0895 7.99974 77.0232 10.0177 78.0538 11.3162C78.0538 11.3162 78.6364 12.1674 80.0709 13.1084C80.0709 13.1084 82.9836 14.6778 84.7307 15.5748C84.7307 15.5748 86.4964 16.5823 86.2633 18.1842C86.2633 18.1842 86.1203 19.8303 84.4162 19.7628C84.4162 19.7628 82.8579 19.6924 82.8579 18.0791V16.1848H76.6155V18.9374C76.6155 18.9374 76.4398 24.2002 84.4631 24.2002C84.4631 24.2002 92.1259 24.3565 92.4844 18.7984V16.5587C92.4844 16.5587 92.7543 13.1533 89.7748 11.3612Z" fill="#F5F5F5"/>
<path fill-rule="evenodd" clip-rule="evenodd" d="M59.7831 1.05811L57.8215 13.3514H57.3629L55.4887 1.16821H45.7026L45.2129 23.4295H51.007L51.0763 6.65631H51.5317L54.6031 23.426H60.6986L63.7324 6.66266H64.1357L64.2756 23.4295H70.0999L69.4735 1.05811H59.7831Z" fill="#F5F5F5"/>
<path fill-rule="evenodd" clip-rule="evenodd" d="M25.2925 1.15039L21.4375 23.4042H27.6747L29.9579 6.14932H30.4712L32.7538 23.4042H38.9904L35.1362 1.15039H25.2925Z" fill="#F5F5F5"/>
<path fill-rule="evenodd" clip-rule="evenodd" d="M156.174 11.0543V14.3381H157.773V17.8621C157.773 19.5836 156.301 19.6154 156.301 19.6154C154.511 19.6154 154.579 17.9785 154.579 17.9785V5.78934C154.579 4.53363 156.166 4.46628 156.166 4.46628C157.692 4.46628 157.703 5.96405 157.703 5.96405V7.8175H163.576C163.767 4.20059 163.046 3.32495 163.046 3.32495C161.59 0.0533133 156.078 0.232207 156.078 0.232207C147.61 0.232207 148.549 6.73035 148.549 6.73035V18.5159C148.731 24.6105 157.075 23.9924 157.217 23.9842C160.93 23.5735 162.05 22.3944 162.05 22.3944C163.082 21.6282 163.349 20.5676 163.349 20.5676C163.642 19.9494 163.717 17.9785 163.717 17.9785V11.0543H156.174Z" fill="#F5F5F5"/>
<path fill-rule="evenodd" clip-rule="evenodd" d="M136.708 14.6764H136.453L130.492 1.06342H123.363V23.4334H129.166L128.818 9.8219H129.076L135.251 23.4334H142.166V1.06201H136.29L136.708 14.6764Z" fill="#F5F5F5"/>
<path fill-rule="evenodd" clip-rule="evenodd" d="M109.195 17.8586C109.195 17.8586 109.28 19.6946 107.578 19.6946C107.578 19.6946 105.787 19.7906 105.787 17.9046L105.77 1.07666H99.4032V17.7707C99.4032 17.7707 98.7502 24.0891 107.667 24.0891C107.667 24.0891 115.415 24.181 115.415 18.0598V1.07773H109.195V17.8586Z" fill="#F5F5F5"/>
<path fill-rule="evenodd" clip-rule="evenodd" d="M13.1577 11.361C13.1577 11.361 11.5669 10.3761 10.5809 9.99505C10.5809 9.99505 7.53314 8.5841 6.92938 7.90975C6.92938 7.90975 5.74109 6.78893 6.43701 5.49129C6.43701 5.49129 6.72699 4.64016 7.98169 4.64016C7.98169 4.64016 9.61743 4.72912 9.61743 6.07259V7.96795H15.4779L15.4658 5.17562C15.4658 5.17562 15.9142 0.604359 8.56512 0.404134C8.56512 0.404134 8.01129 0.368336 7.19916 0.409291C7.19916 0.409291 2.7475 0.648335 1.15564 3.09023C1.14746 3.10759 1.13428 3.12188 1.12512 3.13823C1.12512 3.13823 0.475159 3.83095 0.475159 6.25136V7.99953C0.475159 7.99953 0.407837 10.0165 1.43976 11.3161C1.43976 11.3161 2.02112 12.1672 3.45667 13.1082C3.45667 13.1082 6.36743 14.6766 8.11554 15.5737C8.11554 15.5737 9.8819 16.581 9.64917 18.1841C9.64917 18.1841 9.505 19.8302 7.80188 19.7627C7.80188 19.7627 6.24384 19.6922 6.24384 18.0789V16.1836H0.000305213V18.9372C0.000305213 18.9372 -0.174561 24.2001 7.84686 24.2001C7.84686 24.2001 15.5095 24.3563 15.8691 18.7982V16.5596C15.8691 16.5596 16.1379 13.1531 13.1577 11.361Z" fill="#F5F5F5"/>
</svg>
