<svg width="86" height="29" viewBox="0 0 86 29" fill="none" xmlns="http://www.w3.org/2000/svg">
<path d="M37.1475 28.2762H30.1555L34.5257 1.41784H41.5183L37.1475 28.2762Z" fill="#F5F5F5"/>
<path d="M24.2731 1.41813L17.6062 19.8904L16.8181 15.9125L16.8188 15.9139L14.4653 3.83709C14.4653 3.83709 14.1815 1.41813 11.1484 1.41813H0.128594L0 1.87218C0 1.87218 3.3708 2.57337 7.31346 4.94347L13.3884 28.276H20.6738L31.7985 1.41813H24.2731Z" fill="#F5F5F5"/>
<path d="M79.2713 28.276H85.6918L80.0939 1.41813H74.4723C71.8759 1.41813 71.2437 3.41967 71.2437 3.41967L60.8167 28.276H68.1043L69.5627 24.2872H78.4516L79.2713 28.276ZM71.5771 18.7754L75.2518 8.72458L77.3187 18.7754H71.5771Z" fill="#F5F5F5"/>
<path d="M61.3634 7.87682L62.3605 2.10854C62.3605 2.10854 59.2814 0.9375 56.0715 0.9375C52.6016 0.9375 44.3621 2.45482 44.3621 9.8288C44.3621 16.7681 54.0327 16.8543 54.0327 20.4975C54.0327 24.1407 45.3586 23.4898 42.4964 21.1915L41.4561 27.2213C41.4561 27.2213 44.5776 28.7386 49.3493 28.7386C54.1203 28.7386 61.3196 26.2665 61.3196 19.5434C61.3196 12.5603 51.5613 11.9101 51.5613 8.87473C51.5613 5.83791 58.3712 6.22802 61.3634 7.87682Z" fill="#F5F5F5"/>
<path d="M16.8188 15.9139L14.4653 3.83709C14.4653 3.83709 14.1815 1.41813 11.1484 1.41813H0.128594L0 1.87218C0 1.87218 5.29682 2.97 10.3782 7.08229C15.2346 11.0136 16.8188 15.9139 16.8188 15.9139Z" fill="#F5F5F5"/>
</svg>
