<svg width="155" height="52" viewBox="0 0 155 52" fill="none" xmlns="http://www.w3.org/2000/svg">
<path d="M91.1115 15.6064H91.1004C85.2767 15.6064 80.5645 20.33 80.5645 26.1426C80.5645 31.9664 85.2767 36.69 91.1004 36.69C96.9241 36.69 101.647 31.9776 101.647 26.1538C101.647 20.33 96.9352 15.6064 91.1115 15.6064ZM95.5682 30.6216C93.0898 33.089 89.0888 33.0779 86.6215 30.6105C84.1653 28.1432 84.1653 24.1421 86.6215 21.6748C89.0888 19.1963 93.0898 19.1963 95.5682 21.6637L95.5793 21.6748C98.0577 24.1421 98.0466 28.1543 95.5682 30.6216Z" fill="#F5F5F5"/>
<path d="M78.4521 32.5322L77.3962 32.4766H67.905L80.5637 19.8176L80.5081 18.7618C80.4637 17.0613 79.0967 15.6943 77.3962 15.6498L76.3404 15.5942H60.5254L60.581 16.6501C60.6588 18.3283 62.0035 19.6843 63.6928 19.7621L64.7487 19.8176H74.2399L61.5812 32.4766L61.6368 33.5325C61.6924 35.2218 63.0594 36.5888 64.7487 36.6444L65.8045 36.7H81.6195L81.564 35.6441C81.4195 33.8992 80.1858 32.6322 78.4521 32.5322Z" fill="#F5F5F5"/>
<path d="M145.946 15.6056C143.523 15.6056 141.223 16.6503 139.622 18.4619C136.822 15.2832 132.087 14.672 128.575 17.0504C127.764 16.1279 125.919 15.6056 124.863 15.6056V36.7002L125.919 36.6446C127.675 36.5335 128.964 35.2887 129.031 33.5326L129.087 32.4768V25.097L129.142 24.0412C129.142 23.3077 129.331 22.5852 129.664 21.9295C130.82 19.9178 133.399 19.2288 135.421 20.3957C136.055 20.7625 136.588 21.296 136.955 21.9295H136.944C137.289 22.5852 137.466 23.3077 137.466 24.0412L137.522 25.097V32.4768L137.578 33.5326C137.644 35.222 138.989 36.5779 140.678 36.6446L141.734 36.7002V25.097L141.79 24.0412C141.79 23.2965 141.968 22.5741 142.312 21.9184C143.479 19.9067 146.069 19.2176 148.08 20.3957C148.714 20.7625 149.247 21.296 149.614 21.9295C149.947 22.5852 150.125 23.3077 150.125 24.0412L150.181 25.097V32.4768L150.236 33.5326C150.292 35.222 151.648 36.5779 153.337 36.6446L154.393 36.7002V24.0412C154.382 19.3844 150.603 15.6056 145.946 15.6056Z" fill="#F5F5F5"/>
<path d="M120.707 18.6962C118.728 16.7178 116.05 15.6064 113.249 15.6064C110.448 15.6064 107.77 16.7178 105.792 18.6962C101.68 22.8195 101.68 29.4991 105.803 33.6113C109.926 37.7236 116.606 37.7236 120.718 33.6002C124.841 29.488 124.83 22.8084 120.707 18.6962ZM117.717 30.6216C115.238 33.089 111.238 33.0779 108.77 30.6105C106.314 28.1432 106.314 24.1421 108.77 21.6748C111.238 19.1963 115.238 19.1963 117.717 21.6637L117.728 21.6748C120.206 24.1421 120.195 28.1543 117.717 30.6216Z" fill="#F5F5F5"/>
<path d="M0.677734 0.57959H51.8237V51.7268H0.677734V0.57959Z" fill="#F5F5F5"/>
<path d="M9.11328 16.3955H42.8661V35.9008H9.11328V16.3955Z" fill="#1668E8"/>
</svg>
